<?xml version="1.0" encoding="UTF-8" standalone="no"?>
<!DOCTYPE svg PUBLIC "-//W3C//DTD SVG 1.1//EN" "http://www.w3.org/Graphics/SVG/1.1/DTD/svg11.dtd">
<svg width="100%" height="100%" viewBox="0 0 24 24" version="1.1" xmlns="http://www.w3.org/2000/svg" xmlns:xlink="http://www.w3.org/1999/xlink" xml:space="preserve" xmlns:serif="http://www.serif.com/" style="fill-rule:evenodd;clip-rule:evenodd;stroke-linejoin:round;stroke-miterlimit:2;">
    <path d="M11.991,3.376C7.244,3.376 3.393,7.229 3.393,11.979C3.393,16.729 7.244,20.583 11.991,20.583C12.783,20.583 13.424,21.223 13.424,22.017C13.424,22.81 12.783,23.451 11.991,23.451C5.658,23.451 0.526,18.315 0.526,11.979C0.526,5.643 5.658,0.508 11.991,0.508C18.323,0.508 23.455,5.643 23.455,11.979L23.455,13.413C23.455,15.788 21.529,17.715 19.156,17.715C17.844,17.715 16.666,17.123 15.878,16.196C14.857,17.137 13.491,17.715 11.991,17.715C8.825,17.715 6.259,15.147 6.259,11.979C6.259,8.811 8.825,6.244 11.991,6.244C13.24,6.244 14.395,6.642 15.336,7.324C15.591,7.099 15.923,6.961 16.29,6.961C17.082,6.961 17.723,7.601 17.723,8.394L17.723,13.413C17.723,14.206 18.363,14.847 19.156,14.847C19.948,14.847 20.589,14.206 20.589,13.413L20.589,11.979C20.589,7.229 16.738,3.376 11.991,3.376ZM14.857,11.979C14.857,10.397 13.571,9.111 11.991,9.111C10.41,9.111 9.125,10.397 9.125,11.979C9.125,13.561 10.41,14.847 11.991,14.847C13.571,14.847 14.857,13.561 14.857,11.979Z" style="fill-rule:nonzero;"/>
</svg>
