<?xml version="1.0" encoding="UTF-8" standalone="no"?>
<!DOCTYPE svg PUBLIC "-//W3C//DTD SVG 1.1//EN" "http://www.w3.org/Graphics/SVG/1.1/DTD/svg11.dtd">
<svg width="100%" height="100%" viewBox="0 0 24 24" version="1.1" xmlns="http://www.w3.org/2000/svg" xmlns:xlink="http://www.w3.org/1999/xlink" xml:space="preserve" xmlns:serif="http://www.serif.com/" style="fill-rule:evenodd;clip-rule:evenodd;stroke-linejoin:round;stroke-miterlimit:2;">
    <path d="M11.312,1C12.073,1 12.687,1.614 12.687,2.375L12.687,11.312L9.937,11.312L9.937,2.375C9.937,1.614 10.552,1 11.312,1ZM15.437,7.875C16.198,7.875 16.812,8.489 16.812,9.25L16.812,12C16.812,12.761 16.198,13.375 15.437,13.375C14.677,13.375 14.062,12.761 14.062,12L14.062,9.25C14.062,8.489 14.677,7.875 15.437,7.875ZM18.187,10.625C18.187,9.864 18.802,9.25 19.562,9.25C20.323,9.25 20.937,9.864 20.937,10.625L20.937,13.375C20.937,14.136 20.323,14.75 19.562,14.75C18.802,14.75 18.187,14.136 18.187,13.375L18.187,10.625ZM5.696,3.2L9.246,11.312L6.246,11.312L3.178,4.3C2.873,3.604 3.191,2.796 3.887,2.491C4.584,2.186 5.391,2.504 5.696,3.2ZM6.857,12.709L6.848,12.688L10.969,12.688C11.918,12.688 12.687,13.457 12.687,14.406C12.687,15.356 11.918,16.125 10.969,16.125L8.562,16.125C8.184,16.125 7.875,16.434 7.875,16.812C7.875,17.191 8.184,17.5 8.562,17.5L10.969,17.5C12.679,17.5 14.062,16.116 14.062,14.406L14.062,14.38C14.466,14.613 14.935,14.75 15.437,14.75C16.005,14.75 16.529,14.578 16.967,14.286C17.341,15.356 18.364,16.125 19.562,16.125C20.065,16.125 20.534,15.992 20.937,15.755L20.937,16.125C20.937,19.923 17.861,23 14.062,23L11.411,23C9.589,23 7.841,22.274 6.552,20.985L6.049,20.486C5.018,19.455 4.437,18.054 4.437,16.598L4.437,15.438C4.437,14.032 5.494,12.872 6.857,12.709Z" style="fill-rule:nonzero;"/>
</svg>
