<?xml version="1.0" encoding="UTF-8" standalone="no"?>
<!DOCTYPE svg PUBLIC "-//W3C//DTD SVG 1.1//EN" "http://www.w3.org/Graphics/SVG/1.1/DTD/svg11.dtd">
<svg width="100%" height="100%" viewBox="0 0 24 24" version="1.1" xmlns="http://www.w3.org/2000/svg" xmlns:xlink="http://www.w3.org/1999/xlink" xml:space="preserve" xmlns:serif="http://www.serif.com/" style="fill-rule:evenodd;clip-rule:evenodd;stroke-linejoin:round;stroke-miterlimit:2;">
    <path d="M2.591,2.921C2.591,2.4 2.171,1.98 1.65,1.98C1.129,1.98 0.709,2.4 0.709,2.921L0.709,17.348C0.709,18.56 1.693,19.544 2.905,19.544L10.118,19.544L10.118,17.662L2.905,17.662C2.732,17.662 2.591,17.521 2.591,17.348L2.591,8.253L10.118,8.253L10.118,6.371L2.591,6.371L2.591,2.921ZM13.882,10.762L21.409,10.762C22.448,10.762 23.291,9.919 23.291,8.88L23.291,5.117C23.291,4.078 22.448,3.235 21.409,3.235L18.167,3.235C17.834,3.235 17.516,3.102 17.281,2.866L16.944,2.529C16.591,2.176 16.113,1.976 15.615,1.976L13.882,1.98C12.843,1.98 12,2.823 12,3.862L12,8.88C12,9.919 12.843,10.762 13.882,10.762ZM13.882,22.053L21.409,22.053C22.448,22.053 23.291,21.21 23.291,20.171L23.291,16.408C23.291,15.369 22.448,14.526 21.409,14.526L18.167,14.526C17.834,14.526 17.516,14.392 17.281,14.157L16.944,13.82C16.591,13.467 16.113,13.267 15.615,13.267L13.882,13.271C12.843,13.271 12,14.114 12,15.153L12,20.171C12,21.21 12.843,22.053 13.882,22.053Z" style="fill-rule:nonzero;"/>
</svg>
