<?xml version="1.0" encoding="UTF-8" standalone="no"?><!DOCTYPE svg PUBLIC "-//W3C//DTD SVG 1.1//EN" "http://www.w3.org/Graphics/SVG/1.1/DTD/svg11.dtd"><svg width="100%" height="100%" viewBox="0 0 945 945" version="1.1" xmlns="http://www.w3.org/2000/svg" xmlns:xlink="http://www.w3.org/1999/xlink" xml:space="preserve" xmlns:serif="http://www.serif.com/" style="fill-rule:evenodd;clip-rule:evenodd;stroke-linejoin:round;stroke-miterlimit:2;"><g id="Mr-Crazy-Blender" serif:id="Mr Crazy Blender"><g id="Behind-Headphone" serif:id="Behind Headphone"><path d="M183.591724,513.940537L124.949786,557.758032C124.032986,601.907259 150.421041,666.315046 213.294372,694.114146L284.641086,662.176887" style="fill:rgb(93,93,93);"/><path d="M177.606068,505.929799C182.027315,502.626225 188.298888,503.533634 191.602462,507.954881C194.906035,512.376127 193.998627,518.647701 189.57738,521.951275L134.961938,562.760541C136.002106,602.658685 159.81509,657.370172 213.355784,683.130486L280.555401,653.04961C285.592882,650.794659 291.513412,653.05372 293.768363,658.091202C296.023314,663.128683 293.764252,669.049212 288.726771,671.304163L217.380057,703.241423C214.795122,704.398529 211.840771,704.405299 209.25056,703.260052C142.086664,673.563901 113.972578,604.712449 114.951942,557.550417C115.015905,554.470195 116.496113,551.591406 118.96413,549.747294L177.606068,505.929799Z"/><path d="M307.798232,233.017104L190.87181,233.504611C165.310052,300.771844 162.212201,315.460087 158.479917,411.204428L232.01121,460.036409" style="fill:rgb(0,142,255);"/><path d="M307.756539,223.017191C313.275641,222.99418 317.775134,227.456309 317.798145,232.975411C317.821156,238.494514 313.359027,242.994006 307.839925,243.017017L197.789691,243.475838C175.394695,302.899358 172.146266,319.973845 168.694166,405.983415L237.543389,451.706044C242.141043,454.759336 243.394869,460.970934 240.341576,465.568588C237.288283,470.166242 231.076685,471.420068 226.479031,468.366775L152.947738,419.534794C150.041894,417.605029 148.351631,414.300514 148.487506,410.814906C152.286469,313.360041 155.505551,298.421406 181.523984,229.952408C182.993596,226.085038 186.692966,223.521947 190.830117,223.504698L307.756539,223.017191Z"/><path d="M224.908902,169.052441C318.362302,60.454378 397.148458,62.419422 470.752206,67.475325C368.03319,90.076855 356.511721,104.451704 346.982466,110.404034C311.874781,132.333609 308.409138,141.324028 298.33399,155.050505" style="fill:rgb(0,142,255);"/><path d="M232.488715,175.575204C228.888705,179.758617 222.569552,180.232265 218.386139,176.632255C214.202726,173.032244 213.729078,166.713092 217.329088,162.529679C313.929539,50.274568 395.35514,52.272673 471.4375,57.498834C476.399709,57.839692 480.357111,61.775719 480.72484,66.736009C481.092568,71.696298 477.758828,76.17285 472.901128,77.241703C372.844861,99.257341 361.562476,113.087369 352.280244,118.885399C319.177061,139.562887 315.8954,148.02485 306.395501,160.967603C303.129765,165.416872 296.866161,166.377751 292.416892,163.112016C287.967623,159.84628 287.006744,153.582676 290.272479,149.133407C300.922877,134.623205 304.572499,125.104333 341.684687,101.922669C348.192829,97.85744 355.580226,89.886613 390.883982,78.170619C342.288868,85.022369 290.289122,108.407907 232.488715,175.575204Z"/><path d="M179.510625,562.230613C179.65441,556.713336 184.250473,552.350742 189.76775,552.494526C195.285027,552.638311 199.647622,557.234374 199.503837,562.751651C199.130162,577.090293 198.781164,587.032371 199.392351,594.281865C199.975734,601.201566 201.577294,604.442297 206.67135,607.310512C211.480573,610.018351 213.18663,616.121252 210.478791,620.930475C207.770952,625.739698 201.668051,627.445755 196.858828,624.737916C185.38148,618.275581 180.777464,611.552737 179.463052,595.962054C178.8092,588.20649 179.110864,577.570201 179.510625,562.230613Z"/></g><path id="Handle" d="M695.14991,296.368767C745.36494,316.2571 832.120006,308.400358 869.66182,387.420124C918.942935,491.149319 846.27759,685.879573 776.05514,770.277048C750.570108,800.906461 679.314224,843.245397 581.640779,849.308946C581.149579,850.772433 540.023892,836.196951 540.023892,836.196951L551.721818,767.822601C551.721818,767.822601 602.041448,769.088814 620.099492,767.97783C715.257538,774.021739 754.222452,718.193326 788.317351,631.744803C823.725008,541.967747 862.944716,333.971295 704.504939,380.174743L680.425584,385.762208" style="fill:rgb(218,241,255);"/><path d="M581.637822,839.289364C675.320636,833.317171 743.895556,793.293546 768.368057,763.881053C809.666292,714.246403 851.726848,625.634612 868.413621,540.761155C879.306733,485.355829 879.549136,431.534585 860.629374,391.711385C843.258301,355.147937 814.347043,338.87254 784.124158,329.248739C751.230062,318.774351 716.756315,315.682044 691.467577,305.666101C686.336239,303.633766 683.820241,297.817772 685.852576,292.686434C687.884911,287.555096 693.700905,285.039098 698.832243,287.071433C723.758547,296.943829 757.769821,299.867307 790.192484,310.191578C825.286514,321.366485 858.523427,340.672338 878.694266,383.128863C899.199551,426.289346 899.843914,484.571015 888.037932,544.619446C870.676194,632.92596 826.710937,725.030714 783.742224,776.673043C757.352878,808.389313 683.914974,852.813406 582.890178,859.25012L582.479928,859.351176C581.708351,859.432357 580.360849,859.466842 578.543022,859.131693C571.261164,857.789151 536.683357,845.622493 536.683357,845.622493C532.097179,843.997091 529.346576,839.306596 530.167108,834.510589L541.865035,766.136239C542.702723,761.239954 547.007518,757.700808 551.973373,757.825766C551.973373,757.825766 601.655972,759.093622 619.485423,757.996702C619.901022,757.971133 620.317812,757.971546 620.733359,757.997939C710.752795,763.715473 746.760967,709.85612 779.014714,628.075886C796.257046,584.357496 814.579464,511.881207 809.150679,455.932869C806.65668,430.230047 799.336565,408.072176 783.183993,395.181731C767.071268,382.323086 742.662179,379.464034 707.304484,389.774876C707.126108,389.826893 706.946317,389.873928 706.765321,389.915927L682.685966,395.503393C677.30966,396.750931 671.931939,393.398896 670.6844,388.02259C669.436861,382.646284 672.788897,377.268562 678.165203,376.021024L701.970731,370.497412C745.694663,357.805569 775.708692,363.628057 795.65923,379.549442C815.609067,395.470267 825.97688,422.256069 829.057187,454.001299C834.776582,512.944632 815.785326,589.355022 797.619988,635.41372C761.75632,726.347005 719.937913,784.091018 620.08455,777.996001C606.166278,778.780685 575.240292,778.306517 560.12462,778.007486L551.335728,829.378557L581.637822,839.289364ZM576.276002,840.869714C573.997227,842.240494 572.810561,844.190272 572.160516,846.127026C572.905707,843.906792 574.382411,842.073882 576.276002,840.869714Z"/><path id="Jug" d="M597.216917,846.954185C592.087146,862.237905 587.689624,876.792167 567.076418,907.500321C500.09649,936.679737 286.790145,933.290968 247.004415,877.19744C235.304113,836.894422 200.215951,714.063825 203.307617,425.550364C204.561001,308.584963 206.870697,236.56901 206.870697,236.56901C206.870697,236.56901 170.202566,224.159535 168.294051,214.909745C167.718982,207.203801 204.442844,197.802447 211.564704,198.610281L750.941789,310.763442" style="fill:rgb(218,241,255);"/><path d="M183.506162,215.461243C184.752445,216.249484 186.044549,217.013907 187.225174,217.613425C197.596641,222.880024 210.076364,227.096751 210.076364,227.096751C214.249548,228.509068 217.006785,232.486139 216.865558,236.889566C216.865558,236.889566 214.559011,308.824202 213.307043,425.657516C210.278052,708.322174 244.022367,830.934211 256.11012,872.690025C267.510959,887.37056 292.554444,897.236826 323.252237,904.245912C400.312874,921.840814 513.048417,918.38126 560.431536,899.438447C578.816687,871.630618 582.949716,858.034543 587.736654,843.772265C589.492803,838.539965 595.166537,835.717773 600.398837,837.473922C605.631136,839.230071 608.453329,844.903805 606.69718,850.136105C601.365234,866.022188 596.804885,881.155283 575.37927,913.073707C574.315437,914.658534 572.820248,915.905785 571.070321,916.66813C522.996985,937.611 401.419251,942.60813 318.8003,923.744124C281.309113,915.183933 251.805748,901.252024 238.847795,882.982726C238.201457,882.071461 237.712392,881.058328 237.400916,879.985416C225.625326,839.423057 190.196631,715.81319 193.308192,425.443211C194.330877,330.006498 196.056377,264.461471 196.659843,243.478049C189.976947,240.918104 179.845697,236.729416 172.345392,232.255447C167.659779,229.460456 163.903499,226.416448 161.727403,223.636359C159.961385,221.38017 158.94461,219.083639 158.500348,216.930485C158.413435,216.509254 158.353789,216.082853 158.321781,215.653941C158.014256,211.533103 160.03966,206.128774 166.279501,201.899925C172.614846,197.606351 185.109256,193.29219 195.542766,190.845124C203.201445,189.048866 209.853381,188.352039 212.691779,188.673999C212.996751,188.708592 213.299969,188.757207 213.60047,188.819691L752.977555,300.972852C758.381129,302.096421 761.855949,307.395634 760.732379,312.799208C759.608809,318.202782 754.309597,321.677602 748.906023,320.554032L210.098716,208.519968C206.528407,208.348062 196.522918,210.850031 187.923138,213.812708C186.391236,214.340457 184.904055,214.891258 183.506162,215.461243Z"/><path id="Handle-Gap-Line" serif:id="Handle Gap Line" d="M732.57265,354.471034C737.934916,353.164466 743.349164,356.457177 744.655732,361.819443C745.962301,367.181709 742.66959,372.595957 737.307324,373.902526L705.774605,381.585931C693.565839,517.228889 706.630607,511.357175 681.162933,650.031368C680.166008,655.459734 674.949486,659.057501 669.52112,658.060576C664.092754,657.06365 660.494986,651.847128 661.491912,646.418762C687.229953,506.27239 673.278385,514.7017 686.510861,372.633512C686.906589,368.384838 689.954656,364.855327 694.100427,363.84517L732.57265,354.471034Z"/><path id="Lid-Right" serif:id="Lid Right" d="M513.003355,153.590444C513.003355,153.590444 570.268914,177.096539 597.4901,192.040214C597.4901,192.040214 601.997933,205.4677 600.843199,207.86853C600.843199,207.86853 638.544816,219.056899 647.529174,224.85417C673.384936,241.537926 701.03469,262.374153 701.03469,262.374153C701.03469,262.374153 699.664042,279.920673 698.134519,286.185669C679.089045,288.93944 486.866093,239.536467 486.866093,239.536467" style="fill:rgb(226,226,226);"/><path d="M590.966262,206.304238L588.967755,198.813647C560.922672,184.049048 509.206058,162.841419 509.206058,162.841419C504.100306,160.745634 501.656595,154.898899 503.75238,149.793147C505.848165,144.687395 511.6949,142.243684 516.800652,144.339469C516.800652,144.339469 574.751357,168.149514 602.302369,183.274253C604.504316,184.483061 606.170684,186.476291 606.970132,188.857608C606.970132,188.857608 609.007964,195.057367 610.177053,200.299262C621.854559,203.990732 645.855138,211.872868 652.951044,216.451591C679.094575,233.321034 707.052958,254.387887 707.052958,254.387887C709.780343,256.443182 711.270279,259.748209 711.004319,263.152931C711.004319,263.152931 709.481515,281.871335 707.849195,288.55739C706.881585,292.520763 703.60332,295.498929 699.56553,296.08275C695.332419,296.694812 683.357856,295.336812 666.976945,292.214781C607.817219,280.939553 484.376902,249.22171 484.376902,249.22171C479.031471,247.847888 475.807028,242.392707 477.180851,237.047276C478.554673,231.701845 484.009854,228.477402 489.355285,229.851224C489.355285,229.851224 611.960346,261.369186 670.721337,272.568419C678.482653,274.047645 684.978396,275.251634 689.688163,275.885576C690.05334,272.874139 690.368684,269.679171 690.605142,267.075425C681.855623,260.604882 661.472863,245.752619 642.107305,233.256748C633.633996,227.789239 597.99822,217.455296 597.99822,217.455296C595.189081,216.621653 592.886927,214.597866 591.700124,211.918738C590.911447,210.138351 590.668066,208.187623 590.966262,206.304238Z"/><path id="Top-Headphone" serif:id="Top Headphone" d="M694.569957,298.95211C686.65319,266.624938 649.274095,111.373356 473.224983,67.81555C573.159767,72.779333 661.137929,121.115158 705.596417,195.908918C724.364533,227.483045 736.495179,259.534192 744.052257,290.475054" style="fill:rgb(0,142,255);"/><path d="M704.282936,296.573449C705.595755,301.934188 702.309357,307.352271 696.948618,308.66509C691.587879,309.977908 686.169796,306.691511 684.856977,301.330771C677.196239,270.049061 641.178896,119.671988 470.823219,77.522843C465.824152,76.285981 462.581848,71.454806 463.331502,66.359856C464.081156,61.264906 468.577609,57.572386 473.721073,57.827863C577.214548,62.968406 668.150796,113.342133 714.192456,190.799309C733.504133,223.287884 745.990753,256.265404 753.766699,288.102373C755.076217,293.46392 751.786484,298.879978 746.424938,300.189496C741.063391,301.499014 735.647333,298.209282 734.337815,292.847735C726.999604,262.80298 715.224932,231.678207 697.000378,201.018528C669.415661,154.611985 624.386357,118.898224 570.114181,98.053745C671.930549,163.242993 697.780792,270.022716 704.282936,296.573449Z"/><path id="Juice-Border" serif:id="Juice Border" d="M493.023705,241.528985C552.264287,183.912306 594.214316,294.192196 628.675391,257.955636C636.961116,249.243019 631.575999,229.599414 662.321973,219.325099C704.22777,205.321531 719.318171,236.512574 703.019797,255.888784C680.299987,282.899075 666.744343,264.308387 657.647933,320.317725C652.457389,441.723493 591.966528,824.982556 549.024861,869.777231C486.118445,901.59179 306.77146,889.265581 276.387038,843.965191C266.420703,809.635018 236.532552,705.007727 239.166038,459.251517C240.233672,359.620209 242.275169,313.546394 243.217526,300.815585C243.576195,255.758017 245.413207,222.266243 232.355328,196.923952C227.342629,187.195474 205.046748,165.488966 163.05767,172.235037C127.839934,177.893208 120.769203,246.705478 75.416687,196.729044C34.609921,151.761824 72.402841,126.967423 163.524908,116.514717C208.163584,111.394168 176.957371,86.450627 169.1832,76.36795C126.799824,21.399023 220.731065,-12.9388 214.151766,64.310484C212.596868,82.56696 242.251416,110.482029 260.75468,108.689308C281.855753,106.644895 275.035609,80.016887 273.33773,75.447184C266.723434,57.645342 288.862508,42.675976 302.786992,58.020012C314.10798,70.495134 326.108997,124.090506 326.108997,124.090506L278.510235,128.676567C278.510235,128.676567 274.584671,141.69191 273.265255,145.749334C300.284291,159.529003 422.067587,219.148726 493.023705,241.528985Z" style="fill:rgb(255,132,0);"/><path d="M176.884874,102.68235C176.696829,102.10713 176.364858,101.156414 176.041963,100.550616C175.011966,98.618191 173.581177,96.69064 172.064482,94.823632C168.134159,89.985517 163.632784,85.546383 161.263898,82.474068C148.683275,66.157685 146.424101,51.135945 149.216228,39.314148C153.77663,20.00552 172.238862,8.148892 189.661652,9.37671C207.949551,10.665494 227.463807,25.848012 224.115693,65.159108C223.873184,68.00647 225.148815,71.143725 226.927166,74.360551C229.316866,78.683236 232.815837,82.973337 236.811365,86.761193C244.046902,93.620654 252.767748,99.41631 259.790329,98.735916C261.474067,98.572784 262.784371,98.213329 263.682398,97.414418C265.165467,96.095036 265.451963,94.029477 265.641819,92.05709C266.180034,86.46564 264.598132,80.637172 263.963853,78.930059C256.68909,59.350624 271.719973,42.063603 288.796447,41.655863C296.009875,41.483625 303.723,44.170966 310.192309,51.299797C314.169739,55.682712 318.476206,64.26733 322.196012,74.323471C329.813445,94.916474 335.867348,121.905426 335.867348,121.905426C336.49405,124.704216 335.88886,127.637372 334.205562,129.959546C332.522265,132.281719 329.922916,133.769349 327.068039,134.044412L286.136084,137.98812L285.329082,140.632155C321.393425,158.653999 424.929764,208.582787 490.568695,230.228854C502.976044,219.593675 514.841832,215.24992 525.996911,214.607789C544.047281,213.568736 560.746706,222.737902 575.949636,233.584141C586.462918,241.084641 596.165372,249.333038 605.356864,253.446167C611.030804,255.985215 616.391949,256.360918 621.429027,251.064322C623.916493,248.448699 624.281545,244.313856 625.877875,240.048049C629.82396,229.503089 636.335571,217.465351 659.152573,209.840643C679.851526,202.92372 695.21611,205.785967 704.957467,212.222307C721.764837,223.327325 724.562386,245.81298 710.672495,262.325881C702.893253,271.574179 696.06303,276.147471 690.021483,279.731634C685.943536,282.150886 682.26484,283.804525 679.105025,287.166948C674.195024,292.391779 670.880716,301.437325 667.612837,321.344035C663.845517,407.103724 633.071885,620.663303 600.163102,756.637526C591.58941,792.062753 582.849492,822.271148 574.42388,843.72269C568.258274,859.420277 561.986306,870.706964 556.243662,876.697414C555.46147,877.513358 554.546606,878.190788 553.537958,878.700905C508.04982,901.70627 403.638636,902.943439 334.310158,885.219417C302.559993,877.102398 278.144248,864.537211 268.08215,849.535545C267.508623,848.680469 267.070591,847.741949 266.783539,846.753167C256.741915,812.163653 226.513232,706.757094 229.166612,459.144365C230.22942,359.963463 232.263862,313.646531 233.220468,300.411124C233.572056,257.565187 235.8989,225.63368 223.465977,201.504283C219.245546,193.313413 199.996562,176.428581 164.643953,182.108421C157.970015,183.180673 152.826807,187.568047 148.033082,192.469366C141.665154,198.980221 136.016329,206.596599 130.055736,212.468742C121.931465,220.472457 113.067312,225.43099 102.649142,224.760711C93.353274,224.162638 81.896174,218.749688 68.011344,203.44923C53.154572,187.077735 47.819041,172.491084 49.303998,160.335187C50.779238,148.258831 58.762701,137.499084 73.906052,128.989026C92.284467,118.660971 122.386115,111.168212 162.385272,106.579868C168.153641,105.918172 172.381422,104.963926 175.341908,103.597258C175.872952,103.352108 176.485715,102.955715 176.884874,102.68235ZM490.015684,251.06585C418.568669,228.530758 295.927967,168.532695 268.722004,154.657694C264.340503,152.423135 262.234434,147.334202 263.755433,142.656877C265.058992,138.648217 268.936226,125.788946 268.936226,125.788946C270.108064,121.903675 273.511754,119.111855 277.551192,118.722662L313.677696,115.242047C311.329416,106.029223 307.638357,92.616818 303.438189,81.262064C300.804811,74.142978 298.197434,67.843041 295.381675,64.740226C293.494821,62.661013 291.377744,61.599929 289.273857,61.650164C284.61295,61.761454 280.726011,66.620235 282.711608,71.964308C283.775207,74.826899 286.452316,84.597284 285.549804,93.973369C284.874679,100.987162 282.249635,107.6654 276.975853,112.357111C273.370702,115.564357 268.478437,117.987805 261.719031,118.642701C250.230953,119.755743 234.887908,112.496732 223.051459,101.275496C211.076893,89.923321 203.211188,74.92898 204.18784,63.461859C206.111467,40.876042 198.762838,30.06769 188.255699,29.327231C179.803744,28.731605 170.892993,34.544565 168.6807,43.911358C166.956967,51.209601 169.335793,60.188837 177.102501,70.261833C181.268461,75.664856 191.321609,85.173483 195.019759,93.918232C197.805061,100.504438 197.805685,106.904674 194.549995,112.511779C191.242617,118.207904 182.966652,124.350113 164.664545,126.449566C129.762405,130.453227 102.982159,136.451067 85.969873,145.206679C76.326079,150.169993 70.042014,155.51084 69.156419,162.760346C68.193258,170.644805 73.18575,179.390111 82.822029,190.008858C88.609237,196.386101 93.575449,200.594499 98.087897,202.946711C101.048357,204.489914 103.607217,205.106653 105.981607,204.694602C112.464431,203.569575 117.147958,197.353993 122.480302,191.166356C133.333207,178.572676 145.087528,164.993926 161.471387,162.361653C210.114136,154.546586 235.437658,181.07355 241.24468,192.343621C254.896574,218.838756 253.592194,253.787907 253.217209,300.895185C253.215459,301.114954 253.206465,301.334606 253.190242,301.553783C252.25164,314.233863 250.228844,360.12436 249.165464,459.35867C246.592061,699.507963 275.198393,803.879546 285.52132,839.556878C289.71619,845.0965 296.785944,849.827975 305.678668,854.128791C322.056277,862.049545 344.331457,867.970902 368.944479,871.908984C430.118678,881.696854 505.781449,879.37042 542.880276,861.654544C547.084404,856.630609 551.293018,847.906919 555.808325,836.410981C563.980313,815.605162 572.408701,786.291781 580.724312,751.932907C613.419241,616.842297 644.039764,404.4984 647.65706,319.890579C647.673906,319.496572 647.714043,319.103908 647.777264,318.714642C654.120156,279.659543 663.423561,272.355412 674.678804,265.548638C680.421605,262.075594 687.283758,259.061512 695.367099,249.451687C698.82002,245.346706 700.169966,240.425942 699.08663,236.048359C698.062145,231.908581 694.765825,228.524585 689.675992,226.925337C683.597072,225.015313 675.51863,225.458769 665.491373,228.809555C648.721354,234.413556 645.745142,243.593527 643.255003,250.926494C641.372732,256.469414 639.337887,261.254814 635.921756,264.84695C618.274642,283.403268 598.722746,275.017335 577.204543,259.311322C569.870921,253.958553 562.19205,247.935136 554.08615,243.05647C544.517019,237.297134 534.372906,232.967724 523.307575,235.043968C515.872744,236.439002 508.196608,240.721652 499.995837,248.697623C497.358155,251.263002 493.524749,252.172644 490.015684,251.06585Z"/><g><path d="M91.590785,416.406181C89.399217,421.220706 89.382332,487.246457 89.31883,495.41303C89.273743,501.211314 83.759045,535.081572 150.617793,561.413265C182.06151,573.797079 205.340752,572.96764 223.588589,566.239414C262.392061,551.932045 266.543929,489.821506 270.187245,489.114175C285.86167,486.071068 295.925345,550.677454 305.027829,572.530155C314.650959,595.632788 343.758756,610.061642 392.889991,614.994769C443.658269,620.092267 476.956903,597.609473 503.217892,572.913107C526.670154,568.982604 532.944005,572.787421 542.081125,569.866393C551.440539,566.874299 634.549078,517.30033 672.906916,525.330021C700.306341,531.065717 710.963372,544.782003 744.192909,591.07892C746.016704,593.619914 758.432572,584.420399 754.43482,568.863616C749.973675,551.50359 722.404783,495.242664 672.066714,481.952436C630.988662,471.107033 619.355958,472.47847 591.581703,479.207015C553.307575,488.479242 536.396733,494.377648 510.686843,490.197776C484.976954,486.017905 474.052441,462.998931 437.322367,454.127786C411.663039,447.930476 359.891465,437.300694 336.605942,437.42153C324.030089,437.486789 308.369315,451.335999 297.569621,450.740156C289.717177,450.30692 258.247621,445.765682 250.57977,444.123449C236.19544,441.042739 231.604692,429.188061 215.092269,418.029175C203.888788,410.458004 151.673062,402.399418 136.626962,400.416137C122.270009,398.523696 93.454868,412.311087 91.590785,416.406181Z"/><path d="M274.985446,508.489075C272.251327,518.33058 267.992906,531.50081 262.457171,541.970832C254.749582,556.548594 243.409842,569.589142 227.048059,575.621954C207.024974,583.004739 181.456077,584.306241 146.953343,570.717662C110.276379,556.272782 93.799429,539.286206 86.148981,525.589619C77.799929,510.642323 79.29214,498.806516 79.319132,495.335275C79.370295,488.755512 79.399049,444.882424 80.535519,425.113743C80.927989,418.286798 81.879582,413.602813 82.489363,412.263221C83.059413,411.010912 84.148348,409.310937 86.099354,407.587961C87.831046,406.058666 90.839578,404.034398 94.723182,401.964198C106.317123,395.783916 126.300093,388.968416 137.933794,390.501896C148.66911,391.916956 177.966824,396.376381 198.497255,401.565612C208.598975,404.118902 216.758323,407.085737 220.691479,409.743714C229.497854,415.694951 235.165985,421.784583 240.509599,426.8443C244.14658,430.288054 247.452651,433.226935 252.67399,434.345195C260.090241,435.933543 290.525719,440.336321 298.120505,440.755341C302.150701,440.977696 306.87035,437.907282 311.973273,435.37268C320.253053,431.260145 328.939364,427.461179 336.55405,427.421664C360.389946,427.297973 413.40428,438.063493 439.670089,444.407281C459.541689,449.206723 472.477,457.741611 483.877447,465.733647C493.125418,472.216736 501.008267,478.492952 512.291558,480.327371C536.759821,484.305381 552.801497,478.312582 589.227225,469.488145C618.693537,462.349685 631.038838,460.77762 674.619437,472.283744C729.210937,486.69696 759.282034,547.547802 764.120134,566.374703C769.092805,585.725271 756.166573,598.142881 749.971623,600.555833C747.16608,601.648601 744.665452,601.648545 742.780767,601.255932L739.235996,599.854294L736.068901,596.909914C705.285958,554.021705 696.240049,540.431254 670.857965,535.11786C656.93502,532.203281 636.629176,538.239322 616.593515,546.001021C583.221152,558.929282 550.784787,577.582509 545.126187,579.391496C540.394375,580.9042 536.269414,581.14322 531.063208,581.067683C525.851342,580.992065 519.15825,580.630748 507.796024,582.313203C480.038974,607.878224 444.767365,630.25391 391.890943,624.944739C337.68204,619.501778 306.41431,601.865567 295.796639,576.375298C289.73664,561.826814 283.284354,528.222703 274.985446,508.489075ZM744.969583,575.07213C745.107605,573.877255 745.073673,572.613989 744.749506,571.352529C740.665298,555.45931 715.59883,503.78842 669.513992,491.621128C630.938398,481.436422 620.018439,482.60724 593.93618,488.925885C553.812809,498.646107 536.034211,504.450006 509.082129,500.068181C497.248446,498.14428 488.057246,492.928988 478.678568,486.497418C467.289366,478.687101 455.504846,468.806799 434.974645,463.84829C409.921764,457.797451 359.393014,447.303416 336.657834,447.421395C330.382111,447.453961 323.378722,452.127036 316.683143,455.342563C309.591256,458.748415 302.727099,461.039914 297.018737,460.724971C288.908636,460.277519 256.405002,455.597821 248.485549,453.901702C239.321133,451.938948 233.142084,447.411381 226.75851,441.366956C222.08253,436.939404 217.199161,431.52232 209.49306,426.314635C206.703492,424.42948 200.760814,422.76672 193.596226,420.955813C173.842413,415.962879 145.649355,411.691911 135.320131,410.330379C131.301057,409.800611 125.866435,411.113066 120.435556,412.823162C113.383362,415.043783 104.38066,419.796339 100.868712,421.718326C100.740195,423.027112 100.592353,424.699545 100.502552,426.261616C99.382147,445.750855 99.368967,489.004032 99.318527,495.490786C99.300432,497.817968 98.012415,505.81569 103.609765,515.836619C109.905895,527.108572 124.098005,540.221087 154.282242,552.108867C182.667857,563.288276 203.656001,562.930736 220.129118,556.856874C233.107789,552.071461 241.1269,540.580434 246.660763,528.848202C252.94602,515.522955 255.984137,501.553242 257.964281,493.613471C259.227902,488.54674 260.595343,485.146316 261.501674,483.826356L264.164305,481.082723L268.281383,479.29747C272.96699,478.387785 277.568246,479.496178 281.87133,482.96469C285.361232,485.777735 288.901135,490.779933 291.986556,497.473825C300.939453,516.897347 307.855529,553.311895 314.259019,568.685011C318.22939,578.216839 326.452306,585.714983 338.517354,591.583348C352.291227,598.282875 370.747119,602.721185 393.889039,605.044799C441.095756,609.784691 471.948472,588.592192 496.367167,565.628358C497.806966,564.274342 499.615715,563.377348 501.564986,563.050658C514.151941,560.941136 522.12929,560.910888 528.185619,561.012607C532.532672,561.085619 535.516158,561.466561 539.036062,560.341289C544.608763,558.559763 576.503043,540.083535 609.368809,527.351527C633.494032,518.005555 658.191052,512.032696 674.955866,515.542181C702.261836,521.258314 714.784329,533.585665 744.969583,575.07213Z"/><path d="M347.118509,459.476773C361.303175,461.064196 399.218157,465.194472 414.249037,469.798647C452.602876,481.54698 466.638608,490.380454 467.809144,498.532884C470.80422,519.392673 468.930867,546.683929 462.445958,568.259375C461.460482,571.538078 439.011945,594.103273 415.094322,596.531834C376.911193,600.408892 334.444422,584.701091 329.312696,577.68208C312.543092,554.745156 301.717554,497.843492 305.55514,488.425368C307.700211,483.160979 337.599424,458.41148 347.118509,459.476773Z" style="fill:rgb(29,29,29);"/><path d="M132.55072,535.787312C119.086119,520.637728 108.613529,507.892439 106.334609,497.757074C104.25422,488.504664 107.967112,433.957597 111.27051,430.820839C115.430542,426.87066 127.75984,418.301554 140.512199,420.490235C181.145839,427.464166 197.846014,429.893747 210.856865,438.721353C220.799327,445.467118 228.587404,455.949017 243.254763,475.049934C247.544793,480.636727 233.666021,540.39873 206.317299,554.593269C190.672467,562.713253 141.242421,545.566708 132.55072,535.787312Z" style="fill:rgb(29,29,29);"/></g><path id="Lid-Left" serif:id="Lid Left" d="M486.866093,239.536467C457.045626,231.52845 326.332437,173.511413 273.265255,145.749334C274.584671,141.69191 278.510235,128.676567 278.510235,128.676567C278.510235,128.676567 341.339094,121.913218 349.963662,122.933515C365.733732,124.799134 383.48686,131.584264 398.789488,137.31314C400.445694,133.596253 416.400356,126.439069 416.400356,126.439069C449.657436,133.102466 513.003355,153.590444 513.003355,153.590444" style="fill:rgb(226,226,226);"/><path d="M407.016584,143.000368C404.460086,146.705666 399.643923,148.310818 395.28341,146.678364C380.701104,141.219156 363.816586,134.642066 348.788842,132.864265C342.130333,132.076556 302.13298,136.198971 286.161118,137.90592L285.306892,140.704668C341.718115,169.381158 461.22483,222.296442 489.459616,229.878639C494.789916,231.310043 497.955325,236.799689 496.523921,242.12999C495.092517,247.46029 489.602871,250.625699 484.272571,249.194295C454.172138,241.111096 322.195169,182.632771 268.629773,154.610051C264.306505,152.348335 262.24658,147.296853 263.755433,142.656877C265.058992,138.648217 268.936226,125.788946 268.936226,125.788946C270.096314,121.942635 273.445572,119.163991 277.439946,118.734008C277.439946,118.734008 342.244749,111.950625 351.138482,113.002765C365.723301,114.728167 381.95353,120.385273 396.584767,125.816328C397.012609,125.510387 397.4572,125.208377 397.917967,124.912303C403.707968,121.191833 412.30737,117.315064 412.30737,117.315064C414.20646,116.463141 416.324053,116.225035 418.364913,116.633942C452.003085,123.373695 516.080702,144.075722 516.080702,144.075722C521.33202,145.774156 524.216511,151.416473 522.518077,156.667791C520.819643,161.919109 515.177326,164.8036 509.926008,163.105166C509.926008,163.105166 451.555988,144.205472 417.938556,136.97296L407.016584,143.000368Z"/><g id="Front-Headphone" serif:id="Front Headphone"><g id="EarPad-Right" serif:id="EarPad Right"><path d="M602.605199,768.371945C591.001355,765.162207 511.426207,763.329614 494.894032,689.505598C478.622111,616.843738 570.63619,427.833745 688.697083,479.365959C841.533795,546.077415 703.791689,776.096632 602.605199,768.371945Z" style="fill:rgb(93,93,93);"/><path d="M599.939213,778.010021C595.263797,776.716755 579.638237,775.623006 561.499363,770.043782C531.759524,760.89629 496.057082,740.459924 485.135725,691.690877C480.945825,672.980982 483.166769,647.057127 491.1409,619.26026C502.723811,578.883614 526.287565,534.407168 557.729939,503.064313C594.315729,466.594321 641.316507,447.773781 692.697488,470.200984C775.083008,506.161311 780.256357,585.798341 750.092335,655.742533C732.550313,696.418891 702.992385,733.538808 670.790387,755.899784C648.157296,771.616138 624.138475,780.044916 601.844003,778.342932C601.199809,778.293753 600.561898,778.182262 599.939213,778.010021ZM604.059119,758.449693L604.060724,758.44991C622.039972,759.597522 641.160878,752.125407 659.382995,739.47202C688.81503,719.034499 715.694262,684.999923 731.727348,647.822478C757.522982,588.007683 755.151033,519.283444 684.696678,488.530933C641.627729,469.731836 602.516854,486.658698 571.849641,517.228847C542.765082,546.22135 521.079817,587.426385 510.365491,624.775248C503.474669,648.795831 501.031649,671.152218 504.652339,687.32032C513.569677,727.140472 543.096469,743.458649 567.379185,750.927619C583.917744,756.014612 598.344094,757.279542 604.059119,758.449693Z"/></g><g id="Case"><path d="M743.251576,287.043625C763.798583,371.169012 751.336322,450.518086 745.746687,486.32405C741.059011,516.352265 738.095244,521.450753 741.69525,533.217895C760.109563,593.407738 763.553453,619.327532 731.503615,673.773805C667.287759,782.86372 596.782222,767.912878 591.879692,766.196729C496.967962,732.972513 547.755913,507.15552 680.235266,518.805739C690.518187,519.710018 694.32606,503.979981 695.27153,484.502297C697.154416,445.712829 710.639417,364.446778 693.654914,295.092586" style="fill:rgb(0,142,255);"/><path d="M680.312113,508.77647C680.715702,508.12926 681.509328,506.801102 681.896676,505.772646C683.961393,500.290572 684.868917,492.553987 685.28329,484.017456C687.137692,445.814813 700.669489,365.776218 683.941935,297.471247C682.629116,292.110508 685.915514,286.692425 691.276253,285.379606C696.636992,284.066788 702.055075,287.353185 703.367894,292.713925C720.609376,363.11746 707.171144,445.610778 705.259769,484.987138C704.604027,498.49612 702.402614,510.373564 698.462554,517.545902C693.98535,525.696036 687.463367,529.47997 679.359248,528.767295C605.504804,522.272543 560.137904,596.310199 553.778915,662.365226C549.699415,704.741696 561.239321,744.875961 595.183649,756.758303C599.725377,758.348153 663.395949,769.762385 722.885838,668.700944C753.105982,617.362955 749.495813,592.897083 732.132755,536.143418C728.194017,523.269084 730.737607,517.635266 735.866355,484.78164C741.346135,449.679382 753.680325,371.888352 733.537134,289.416306C732.227616,284.05476 735.517349,278.638701 740.878895,277.329183C746.240442,276.019665 751.6565,279.309398 752.966018,284.670944C773.916849,370.449702 761.326512,451.356777 755.62702,487.866459C753.298999,502.779246 751.394268,511.500851 750.523285,517.956035C749.871804,522.784404 749.920459,525.921258 751.257746,530.292372C770.723436,593.918796 774.001138,621.291745 740.121393,678.846665C671.159663,795.998871 593.840587,777.478135 588.575735,775.635154C566.857199,768.032497 551.656833,751.767475 542.688532,730.472913C530.149562,700.700064 530.062738,660.701317 541.191974,622.852316C559.822877,559.491179 609.516243,503.005528 680.312113,508.77647Z"/></g><path id="Thingy" d="M684.173015,640.069089C671.36803,664.192451 665.664533,689.656855 634.432432,684.662069C608.382942,680.49611 610.722011,623.933442 641.411928,602.713172C673.790716,580.325147 690.221262,613.608636 685.057175,639.070384"/><path d="M692.461083,645.792112C687.492546,655.303319 683.510905,664.93889 678.649607,672.857468C673.985771,680.454399 668.488936,686.608057 661.366719,690.544281C654.059252,694.582886 644.959755,696.472721 632.853251,694.536591C618.264066,692.203419 608.724375,679.112951 606.851168,661.165903C604.516928,638.801751 614.306252,609.297474 635.724648,594.487916C653.264576,582.360088 667.505094,583.59069 677.644165,590.085942C691.847507,599.184832 698.776436,621.736279 694.857635,641.058089C694.486148,642.889721 693.634773,644.50254 692.461083,645.792112ZM675.635962,634.860999C676.556701,628.257853 675.745013,621.19976 673.289093,615.382084C671.801535,611.858302 669.740261,608.774534 666.855732,606.926658C662.006364,603.820075 655.488296,605.137868 647.099208,610.938428C631.689365,621.593427 625.0637,642.999414 626.74311,659.089698C627.550303,666.823352 629.724912,673.782147 636.011612,674.787546C642.646061,675.848559 647.687962,675.252906 651.692505,673.039722C655.882042,670.724297 658.861804,666.86253 661.605235,662.393749C666.443285,654.51304 670.321779,644.834881 675.340258,635.380549C675.434315,635.203356 675.532957,635.030149 675.635962,634.860999Z"/></g><g><path id="Reflection-3" serif:id="Reflection 3" d="M288.664889,247.21001C283.171238,247.739937 278.280858,243.710023 277.750931,238.216372C277.221004,232.722722 281.250918,227.832341 286.744569,227.302414C306.73605,225.374002 321.166278,222.862222 335.386361,227.253126C349.890806,231.731835 364.675763,243.156338 384.21949,271.13968C400.034061,293.783497 425.0088,301.465987 447.699304,303.58387C472.008112,305.852802 494.067371,301.700073 502.026875,300.547826C507.489088,299.757095 512.565684,303.549746 513.356414,309.011959C514.147144,314.474171 510.354493,319.550767 504.892281,320.341498C494.444986,321.853887 461.782134,327.835642 429.318961,321.034752C406.340036,316.22077 383.563623,305.129912 367.82258,282.591376C352.121495,260.110052 341.138242,249.96096 329.485627,246.362844C317.54941,242.677157 305.445568,245.591317 288.664889,247.21001Z"/><path id="Reflection-2" serif:id="Reflection 2" d="M584.034594,328.147186C585.236162,322.76042 590.585055,319.36257 595.971821,320.564139C601.358587,321.765708 604.756437,327.1146 603.554868,332.501366C593.353425,378.235569 598.699001,378.710252 591.550863,424.911501C590.706995,430.365756 585.593717,434.108806 580.139461,433.264938C574.685205,432.421069 570.942156,427.307792 571.786024,421.853536C579.035182,374.999352 573.68898,374.527723 584.034594,328.147186Z"/><path id="Reflection" d="M563.195357,471.217001C563.36052,465.700322 567.973454,461.35557 573.490132,461.520733C579.00681,461.685895 583.351563,466.298829 583.1864,471.815507C582.594982,491.569777 582.010956,491.090107 578.843606,510.858004C577.970427,516.307644 572.837099,520.023149 567.387459,519.14997C561.937819,518.276791 558.222314,513.143464 559.095493,507.693823C562.055081,489.222598 562.642734,489.675493 563.195357,471.217001Z"/></g></g></svg>